<!-- Generated by IcoMoon.io -->
<svg version="1.1" xmlns="http://www.w3.org/2000/svg" width="512" height="512" viewBox="0 0 512 512" fill="white">
<title></title>
<g id="icomoon-ignore">
</g>
<path d="M458.903 178.538c-11.105-15.146-26.587-32.85-43.589-49.852s-34.706-32.482-49.852-43.589c-25.787-18.91-38.296-21.097-45.462-21.097h-184c-22.057 0-40 17.944-40 40v368c0 22.056 17.943 40 40 40h304c22.056 0 40-17.944 40-40v-248c0-7.166-2.186-19.675-21.097-45.462zM392.687 151.313c15.35 15.35 27.4 29.199 36.29 40.687h-76.977v-76.973c11.491 8.89 25.339 20.939 40.687 36.286v0zM448 472c0 4.336-3.664 8-8 8h-304c-4.336 0-8-3.664-8-8v-368c0-4.336 3.664-8 8-8 0 0 183.978-0.001 184 0v112c0 8.836 7.162 16 16 16h112v248z"></path>
<path d="M301.462 21.098c-25.787-18.911-38.296-21.098-45.462-21.098h-184c-22.056 0-40 17.944-40 40v368c0 19.316 13.764 35.479 32 39.195v-407.195c0-4.336 3.664-8 8-8h243.438c-4.823-3.96-9.514-7.63-13.976-10.902z"></path>
</svg>
