<svg width="16" height="16" xmlns="http://www.w3.org/2000/svg">
 <g>
  <title>background</title>
  <rect x="-1" y="-1" width="18" height="18" id="canvas_background" fill="none"/>
 </g>

 <g>
  <title>Layer 1</title>
  <rect id="svg_4" height="10.187455" width="8.812461" y="2.839866" x="3.656268" stroke-opacity="null" stroke-width="null" stroke="null" fill="#ffffff"/>
  <path fill="#ff0000" d="m15.7662,7.912041c0,4.2965 -3.48253,7.77777 -7.77778,7.77777s-7.77777,-3.48127 -7.77777,-7.77777c0,-4.294 3.48253,-7.77778 7.77777,-7.77778s7.77778,3.48379 7.77778,7.77778zm-7.77778,1.5681c-0.79675,0 -1.44265,0.6459 -1.44265,1.44265s0.6459,1.44265 1.44265,1.44265s1.44266,-0.6459 1.44266,-1.44265s-0.6459,-1.44265 -1.44265,-1.44265l-0.00001,0zm-1.36967,-5.18559l0.23264,4.26524c0.01089,0.19959 0.17591,0.35583 0.37578,0.35583l1.5225,0c0.19988,0 0.3649,-0.15625 0.37579,-0.35583l0.23264,-4.26524c0.01176,-0.21558 -0.15989,-0.39685 -0.37578,-0.39685l-1.98782,0c-0.2159,0 -0.38751,0.18127 -0.37575,0.39685z" id="svg_1" stroke="null"/>
 </g>
</svg>