<svg width="16" height="16" xmlns="http://www.w3.org/2000/svg">
 <g>
  <title>background</title>
  <rect x="-1" y="-1" width="18" height="18" id="canvas_background" fill="none"/>
 </g>

 <g>
  <title>Layer 1</title>
  <circle class="st0" cx="12.710527" cy="12.710527" r="1.447368" fill="#ffffff" id="svg_1"/>
  <circle class="st0" cx="8.026315" cy="7.894737" r="1.315789" fill="#ffffff" id="svg_2"/>
  <path class="st0" d="m12.03904,6.53065c0,0 0,0 0,0c-0.22887,-0.62939 -0.57217,-1.14435 -1.02991,-1.65931c-0.28609,-0.28608 -0.80105,-0.28608 -1.08714,0c-0.28609,0.28609 -0.28609,0.80105 0,1.08714c0.28609,0.28609 0.51496,0.62939 0.68661,1.08713c0,0 0,0 0,0c0.05722,0.17166 0.11444,0.28609 0.11444,0.45774c0.17165,0.91548 -0.11444,1.88818 -0.80105,2.57479c-0.68661,0.68662 -1.60209,0.9727 -2.57479,0.80105c0,0 0,0 0,0c0,0 0,0 0,0c-0.11443,0 -0.28609,-0.05722 -0.40052,-0.11443c-0.40052,-0.17166 -0.74383,-0.34331 -1.08713,-0.68662c-1.02992,-1.02991 -1.08714,-2.74644 -0.11444,-3.89079c0,0 0,0 0,0l0,0c0.05722,-0.05722 0.05722,-0.11444 0.11444,-0.11444c0.05721,-0.05721 0.11443,-0.05721 0.11443,-0.11443l0,0c0,0 0,0 0,0c0.51496,-0.45774 1.20157,-0.68661 1.88818,-0.68661c0.40052,0 0.74383,-0.34331 0.74383,-0.74383c0,-0.40052 -0.34331,-0.74383 -0.74383,-0.74383c0,0 0,0 0,0c-1.02992,0 -2.05983,0.40053 -2.86088,1.08714c0,0 0,0 0,0c0,0 0,0 0,0l0,0c-0.05722,0.05721 -0.17165,0.11443 -0.22887,0.17165c-0.05722,0.05722 -0.11443,0.17165 -0.17165,0.22887l0,0c0,0 0,0 0,0c-1.48766,1.71653 -1.37322,4.34853 0.22887,5.95063c0.45774,0.45774 1.02992,0.80104 1.65931,1.02991c0.22887,0.05722 0.45774,0.11444 0.68661,0.17166c0,0 0,0 0,0c0.28609,0.05721 0.51496,0.05721 0.80105,0.05721c1.14435,0 2.2887,-0.45774 3.08974,-1.25878c1.02992,-1.02992 1.48766,-2.46036 1.20157,-3.8908c-0.05721,-0.3433 -0.11443,-0.57217 -0.22887,-0.80104l0,-0.00001z" fill="#ffffff" id="svg_3" stroke="null"/>
  <path class="st0" d="m7.96053,0.12105c-4.36182,0 -7.83948,3.53661 -7.83948,7.83948s3.53661,7.83947 7.83948,7.83947c0.64838,0 1.3557,-0.05894 1.94513,-0.23577c0.4126,-0.11789 0.64838,-0.53049 0.58943,-0.9431c-0.11788,-0.4126 -0.53049,-0.64838 -0.94309,-0.58943c-0.53049,0.11788 -1.06098,0.17683 -1.59147,0.17683c-3.47766,0 -6.30695,-2.82929 -6.30695,-6.30695s2.82929,-6.248 6.30695,-6.248s6.30694,2.82928 6.30694,6.30695c0,0.53049 -0.05894,1.11992 -0.23577,1.65041c-0.11789,0.41261 0.11789,0.82521 0.53049,0.9431c0.4126,0.11788 0.82521,-0.11789 0.94309,-0.53049c0.17683,-0.64838 0.29472,-1.3557 0.29472,-2.06302c0,-4.36182 -3.47766,-7.83948 -7.83947,-7.83948z" fill="#ffffff" id="svg_4" stroke="null"/>
 </g>
</svg>