<svg width="15" height="16" xmlns="http://www.w3.org/2000/svg">

 <g>
  <title>background</title>
  <rect fill="none" id="canvas_background" height="18" width="17" y="-1" x="-1"/>
 </g>
 <g>
  <title>Layer 1</title>
  <path stroke="null" id="svg_1" d="m7.172271,7.232904c1.730637,0 3.13326,-1.402624 3.13326,-3.13326s-1.402624,-3.13326 -3.13326,-3.13326s-3.13326,1.402624 -3.13326,3.13326s1.402624,3.13326 3.13326,3.13326zm2.193282,0.783315l-0.408793,0c-0.543425,0.249682 -1.148046,0.391658 -1.78449,0.391658s-1.238617,-0.141976 -1.78449,-0.391658l-0.408793,0c-1.816312,0 -3.289923,1.473611 -3.289923,3.289923l0,1.01831c0,0.648683 0.52629,1.174973 1.174973,1.174973l8.616466,0c0.648683,0 1.174973,-0.52629 1.174973,-1.174973l0,-1.01831c0,-1.816312 -1.473611,-3.289923 -3.289923,-3.289923z" fill="#ededed"/>
 </g>
</svg>