<?xml version="1.0" standalone="no"?>
<!DOCTYPE svg PUBLIC "-//W3C//DTD SVG 20010904//EN"
 "http://www.w3.org/TR/2001/REC-SVG-20010904/DTD/svg10.dtd">
<svg version="1.0" xmlns="http://www.w3.org/2000/svg"
 width="512.000000pt" height="512.000000pt" viewBox="0 0 512.000000 512.000000"
 preserveAspectRatio="xMidYMid meet">
<metadata>
Created by potrace 1.11, written by Peter Selinger 2001-2013
</metadata>
<g transform="translate(0.000000,512.000000) scale(0.100000,-0.100000)"
fill="#000000" stroke="none">
<path d="M0 2560 l0 -2560 2560 0 2560 0 0 2560 0 2560 -2560 0 -2560 0 0
-2560z m3220 1090 l0 -110 -1014 0 -1014 0 -53 -28 c-39 -20 -62 -41 -84 -77
l-30 -48 -3 -464 -3 -463 -109 0 -110 0 0 458 c0 350 3 469 14 507 43 161 163
282 321 321 38 9 293 13 1068 13 l1017 1 0 -110z m1100 -325 l0 -435 -110 0
-110 0 -2 244 -3 245 -355 -349 -355 -348 -78 76 -79 77 359 352 358 352 -252
1 -253 0 0 110 0 110 440 0 440 0 0 -435z m-2 -1142 l-3 -488 -37 -77 c-60
-126 -159 -209 -293 -244 -40 -11 -249 -14 -1062 -14 l-1013 0 0 110 0 110
1004 0 c723 0 1012 3 1037 11 56 19 100 59 125 113 l24 51 0 458 0 457 110 0
111 0 -3 -487z m-2785 -250 l-358 -352 258 -1 257 0 0 -110 0 -110 -445 0
-445 0 0 440 0 440 110 0 110 0 2 -249 3 -250 355 349 355 348 78 -76 79 -77
-359 -352z"/>
</g>
</svg>
