<svg xmlns="http://www.w3.org/2000/svg" width="11" height="11"><g fill="none" fill-rule="evenodd"><path stroke="#000" stroke-width=".5" d="M.25 6.25h4.5v4.5H.25z"/><path fill="#4A4A4A" d="M4.1 10.334h-.637l-.315-.89H1.77l-.303.89H.833l1.311-3.5H2.8l1.3 3.5zM2.994 8.97l-.486-1.397a1.654 1.654 0 0 1-.046-.22h-.01a1.43 1.43 0 0 1-.049.22l-.48 1.397h1.071z"/><path stroke="#000" stroke-width=".5" d="M.25.25h4.5v4.5H.25z"/><path fill="#4A4A4A" d="M4.1 4.334h-.637l-.315-.89H1.77l-.303.89H.833l1.311-3.5H2.8l1.3 3.5zM2.994 2.97l-.486-1.397a1.654 1.654 0 0 1-.046-.22h-.01a1.43 1.43 0 0 1-.049.22l-.48 1.397h1.071z"/><path stroke="#000" stroke-width=".5" d="M6.25 6.25h4.5v4.5h-4.5z"/><path fill="#4A4A4A" d="M10.1 10.334h-.637l-.315-.89H7.77l-.303.89h-.635l1.311-3.5H8.8l1.3 3.5zM8.994 8.97l-.486-1.397a1.654 1.654 0 0 1-.046-.22h-.01a1.43 1.43 0 0 1-.049.22l-.48 1.397h1.071z"/><g><path stroke="#000" stroke-width=".5" d="M6.25.25h4.5v4.5h-4.5z"/><path fill="#4A4A4A" d="M10.1 4.334h-.637l-.315-.89H7.77l-.303.89h-.635l1.311-3.5H8.8l1.3 3.5zM8.994 2.97l-.486-1.397a1.654 1.654 0 0 1-.046-.22h-.01a1.43 1.43 0 0 1-.049.22l-.48 1.397h1.071z"/></g></g></svg>