<svg xmlns="http://www.w3.org/2000/svg" width="9" height="9"><path fill="#231F20" fill-rule="evenodd" d="M4.5 2.25c.309 0 .6.059.873.176a2.27 2.27 0 0 1 1.201 1.201c.117.273.176.564.176.873 0 .313-.059.604-.176.876a2.27 2.27 0 0 1-1.201 1.198 2.193 2.193 0 0 1-.873.176c-.312 0-.604-.059-.876-.176a2.28 2.28 0 0 1-1.198-1.198A2.19 2.19 0 0 1 2.25 4.5c0-.309.059-.6.176-.873a2.27 2.27 0 0 1 1.198-1.201c.272-.117.564-.176.876-.176m0 6c.344 0 .676-.045.996-.135a3.703 3.703 0 0 0 1.655-.964 3.703 3.703 0 0 0 .964-1.655c.09-.32.135-.652.135-.996s-.045-.676-.135-.996a3.703 3.703 0 0 0-.964-1.655A3.703 3.703 0 0 0 5.496.885 3.661 3.661 0 0 0 4.5.75c-.344 0-.676.045-.996.135a3.703 3.703 0 0 0-1.655.964 3.703 3.703 0 0 0-.964 1.655c-.09.32-.135.652-.135.996s.045.676.135.996a3.703 3.703 0 0 0 .964 1.655 3.703 3.703 0 0 0 1.655.964c.32.09.652.135.996.135M4.5 0c.414 0 .812.054 1.195.161.383.108.742.259 1.076.454.333.196.637.43.911.703.273.274.507.578.703.911.195.334.346.693.454 1.076.107.382.161.781.161 1.195 0 .414-.054.813-.161 1.195a4.601 4.601 0 0 1-.454 1.076c-.196.333-.43.637-.703.911a4.568 4.568 0 0 1-.911.703 4.601 4.601 0 0 1-1.076.454A4.419 4.419 0 0 1 4.5 9c-.414 0-.812-.054-1.195-.161a4.601 4.601 0 0 1-1.076-.454 4.568 4.568 0 0 1-.911-.703 4.568 4.568 0 0 1-.703-.911 4.601 4.601 0 0 1-.454-1.076A4.414 4.414 0 0 1 0 4.5c0-.414.054-.813.161-1.195.108-.383.259-.742.454-1.076.196-.333.43-.637.703-.911.274-.273.578-.507.911-.703A4.601 4.601 0 0 1 3.305.161 4.419 4.419 0 0 1 4.5 0"/></svg>