<svg xmlns="http://www.w3.org/2000/svg" width="12" height="12"><path fill="#231F20" fill-rule="evenodd" d="M9 0v.75H3V0h-.75v.75H0v10.5h12V.75H9.75V0H9zm.75 2.25V1.5h1.5V3H.75V1.5h1.5v.75H3V1.5h6v.75h.75zm-9 8.25h10.5V3.75H.75v6.75zM9 5.25h.75V4.5H9v.75zm-2.25 0h.75V4.5h-.75v.75zm-2.25 0h.75V4.5H4.5v.75zM9 6.75h.75V6H9v.75zm-2.25 0h.75V6h-.75v.75zm-2.25 0h.75V6H4.5v.75zm-2.25 0H3V6h-.75v.75zM9 8.25h.75v-.751H9v.751zm-2.25 0h.75v-.751h-.75v.751zm-2.25 0h.75v-.751H4.5v.751zm-2.25 0H3v-.751h-.75v.751zm4.5 1.5h.75V9h-.75v.75zm-2.25 0h.75V9H4.5v.75zm-2.25 0H3V9h-.75v.75z"/></svg>