<svg xmlns="http://www.w3.org/2000/svg" width="12" height="12"><g fill="none" fill-rule="evenodd"><path stroke="#000" stroke-width=".5" d="M.25 6.795h4.5v4.5H.25z"/><path fill="#4A4A4A" d="M3.556 7.872H2.248v1.052h1.206v.49H2.248v1.466h-.581V7.379h1.89z"/><path stroke="#000" stroke-width=".5" d="M.25.25h4.5v4.5H.25z"/><path fill="#4A4A4A" d="M3.556 1.326H2.248V2.38h1.206v.49H2.248v1.465h-.581v-3.5h1.89z"/><path stroke="#000" stroke-width=".5" d="M6.795 6.795h4.5v4.5h-4.5z"/><path fill="#4A4A4A" d="M10.102 7.872H8.793v1.052H10v.49H8.793v1.466h-.58V7.379h1.889z"/><g><path stroke="#000" stroke-width=".5" d="M6.795.25h4.5v4.5h-4.5z"/><path fill="#4A4A4A" d="M10.102 1.326H8.793V2.38H10v.49H8.793v1.465h-.58v-3.5h1.889z"/></g></g></svg>