<svg xmlns="http://www.w3.org/2000/svg" width="12" height="12"><g fill="none" fill-rule="evenodd"><circle cx="3.125" cy="1.458" r="1" fill="#D8D8D8"/><path fill="#9B9B9B" d="M0 2.773l.816-1.376L2.8 3.215l1.02-.762L5 3.215V5H0z"/><path stroke="#000" stroke-width=".5" d="M.25.25h4.5v4.5H.25z"/><g transform="translate(0 6.545)"><circle cx="3.125" cy="1.458" r="1" fill="#D8D8D8"/><path fill="#9B9B9B" d="M0 2.773l.816-1.376L2.8 3.215l1.02-.762L5 3.215V5H0z"/><path stroke="#000" stroke-width=".5" d="M.25.25h4.5v4.5H.25z"/></g><g transform="translate(6.545)"><circle cx="3.125" cy="1.458" r="1" fill="#D8D8D8"/><path fill="#9B9B9B" d="M0 2.773l.816-1.376L2.8 3.215l1.02-.762L5 3.215V5H0z"/><path stroke="#000" stroke-width=".5" d="M.25.25h4.5v4.5H.25z"/></g><g transform="translate(6.545 6.545)"><circle cx="3.125" cy="1.458" r="1" fill="#D8D8D8"/><path fill="#9B9B9B" d="M0 2.773l.816-1.376L2.8 3.215l1.02-.762L5 3.215V5H0z"/><path stroke="#000" stroke-width=".5" d="M.25.25h4.5v4.5H.25z"/></g></g></svg>