<svg xmlns="http://www.w3.org/2000/svg" width="18" height="18"><g fill="none" fill-rule="evenodd"><path fill="#FFF" stroke="#979797" stroke-width=".25" d="M.125.125h17.75v17.75H.125z"/><path fill="#979797" d="M12.75 6.75c.102 0 .19.037.264.11l1.875 1.876A.362.362 0 0 1 15 9a.362.362 0 0 1-.11.264l-1.876 1.875a.362.362 0 0 1-.264.11.362.362 0 0 1-.264-.11.362.362 0 0 1-.11-.264.36.36 0 0 1 .11-.264L14.098 9l-1.612-1.611a.362.362 0 0 1-.11-.264.36.36 0 0 1 .11-.264.362.362 0 0 1 .264-.111zm-2.139 5.736a.362.362 0 0 1 .264-.111c.102 0 .19.037.264.11a.362.362 0 0 1 .111.265.362.362 0 0 1-.11.264l-1.876 1.875a.362.362 0 0 1-.264.11.362.362 0 0 1-.264-.11l-1.875-1.875a.362.362 0 0 1-.11-.264.36.36 0 0 1 .11-.264.362.362 0 0 1 .264-.111c.102 0 .19.037.264.11L9 14.099l1.611-1.612zM9.001 3c.101 0 .188.037.263.11l1.875 1.876a.362.362 0 0 1 .111.264.362.362 0 0 1-.11.264.362.362 0 0 1-.265.11.362.362 0 0 1-.264-.11l-1.61-1.612-1.612 1.612a.362.362 0 0 1-.264.11.362.362 0 0 1-.264-.11.362.362 0 0 1-.11-.264.36.36 0 0 1 .11-.264L8.736 3.11A.362.362 0 0 1 9 3zM5.25 6.75c.101 0 .188.037.263.11a.362.362 0 0 1 .111.265.362.362 0 0 1-.11.264l-1.613 1.61 1.612 1.612a.362.362 0 0 1 .111.264.362.362 0 0 1-.11.264.362.362 0 0 1-.265.11.362.362 0 0 1-.264-.11L3.111 9.264A.362.362 0 0 1 3.001 9a.36.36 0 0 1 .11-.264L4.986 6.86a.362.362 0 0 1 .264-.111z"/><path fill="#231F20" d="M9 10.954v3.539"/><path stroke="#979797" stroke-linecap="round" stroke-width=".75" d="M9 10.954v3.539"/><path fill="#231F20" d="M9 3.506v3.428"/><path stroke="#979797" stroke-linecap="round" stroke-width=".75" d="M9 3.506v3.428"/><path fill="#231F20" d="M7.019 9H3.802"/><path stroke="#979797" stroke-linecap="round" stroke-width=".75" d="M7.019 9H3.802"/><path fill="#231F20" d="M14.199 9H11.06"/><path stroke="#979797" stroke-linecap="round" stroke-width=".75" d="M14.199 9H11.06"/></g></svg>