<svg xmlns="http://www.w3.org/2000/svg" width="12" height="12"><path fill="#231F20" fill-rule="evenodd" d="M11.25 6.375a.362.362 0 0 0-.111-.264.362.362 0 0 0-.264-.111H8.25V3.375a.362.362 0 0 0-.111-.264A.362.362 0 0 0 7.875 3a.362.362 0 0 0-.264.111.362.362 0 0 0-.111.264v4.5a.362.362 0 0 1-.111.264.362.362 0 0 1-.264.111.362.362 0 0 1-.264-.111.362.362 0 0 1-.111-.264V6a.73.73 0 0 0-.53.22.743.743 0 0 0-.22.53v1.125c0 .363.069.704.208 1.022a2.658 2.658 0 0 0 1.395 1.395c.318.139.659.208 1.022.208s.704-.069 1.022-.208a2.658 2.658 0 0 0 1.395-1.395c.139-.318.208-.659.208-1.022v-1.5zm-6 .375c0-.207.039-.401.117-.583.078-.182.186-.341.322-.478.137-.136.296-.244.478-.322.182-.078.376-.117.583-.117V3.375a1.132 1.132 0 0 1 .328-.797 1.132 1.132 0 0 1 1.594 0A1.132 1.132 0 0 1 9 3.375V5.25h1.5V.75H.75V7.5h4.5v-.75zm6-1.436a1.1 1.1 0 0 1 .545.411 1.142 1.142 0 0 1 .205.65v1.5c0 .465-.089.902-.267 1.313-.177.41-.419.767-.723 1.072a3.429 3.429 0 0 1-1.072.723 3.266 3.266 0 0 1-1.313.267c-.43 0-.837-.076-1.222-.229a3.379 3.379 0 0 1-1.766-1.584 3.305 3.305 0 0 1-.369-1.187H.75a.73.73 0 0 1-.53-.22A.743.743 0 0 1 0 7.5V.75A.73.73 0 0 1 .22.22.743.743 0 0 1 .75 0h9.75a.73.73 0 0 1 .53.22.743.743 0 0 1 .22.53v4.564z"/></svg>