<svg xmlns="http://www.w3.org/2000/svg" width="12" height="12"><path fill="#231F20" fill-rule="evenodd" d="M6 6V2.25h-.75v4.5h3V6H6zM6 .75c-.484 0-.949.063-1.395.188a5.254 5.254 0 0 0-2.314 1.353A5.241 5.241 0 0 0 .938 7.395a5.254 5.254 0 0 0 1.353 2.314 5.241 5.241 0 0 0 5.101 1.353 5.241 5.241 0 0 0 2.317-1.353 5.241 5.241 0 0 0 1.353-5.101 5.241 5.241 0 0 0-1.353-2.317A5.241 5.241 0 0 0 6 .75zM6 12a5.886 5.886 0 0 1-1.597-.214 6.09 6.09 0 0 1-1.432-.603 5.953 5.953 0 0 1-1.216-.938A5.953 5.953 0 0 1 .214 7.594 5.896 5.896 0 0 1 0 6c0-.551.071-1.082.214-1.594a5.953 5.953 0 0 1 1.541-2.651A5.953 5.953 0 0 1 4.406.214 5.896 5.896 0 0 1 6 0c.551 0 1.082.071 1.594.214a5.953 5.953 0 0 1 2.651 1.541 5.953 5.953 0 0 1 1.541 2.651C11.929 4.918 12 5.449 12 6c0 .555-.071 1.087-.214 1.597a6.09 6.09 0 0 1-.603 1.432c-.26.446-.573.851-.938 1.216a5.953 5.953 0 0 1-2.651 1.541A5.896 5.896 0 0 1 6 12z"/></svg>