<?xml version="1.0" encoding="UTF-8"?>
<svg width="96px" height="96px" viewBox="0 0 96 96" version="1.1" xmlns="http://www.w3.org/2000/svg" xmlns:xlink="http://www.w3.org/1999/xlink">
    <!-- Generator: Sketch 43.2 (39069) - http://www.bohemiancoding.com/sketch -->
    <title>adaptive_cards</title>
    <desc>Created with Sketch.</desc>
    <defs></defs>
    <g id="assets" stroke="none" stroke-width="1" fill="none" fill-rule="evenodd">
        <g id="adaptive_cards">
            <g id="Group-21">
                <rect id="Rectangle-17-Copy-22" fill="#3A96DD" x="0" y="0" width="96" height="96" rx="48"></rect>
                <g id="Page-1" transform="translate(22.000000, 30.000000)" fill="#FFFFFF">
                    <g id="Group-3">
                        <path d="M6.38596491,0.911322807 C2.86091228,0.911322807 0,3.77223509 0,7.29728772 L0,19.9702351 L3.19298246,19.9702351 L3.19298246,7.29728772 C3.19298246,5.53795439 4.62663158,4.10430526 6.38596491,4.10430526 L35.122807,4.10430526 L35.122807,0.911322807 L6.38596491,0.911322807 Z" id="Fill-1"></path>
                    </g>
                    <polygon id="Fill-4" points="0 36.0341298 12.922 36.0341298 12.922 32.8411474 5.45042105 32.8411474 15.8052632 22.4894982 13.5478246 20.2320596 3.19298246 30.5837088 3.19298246 23.1632175 0 23.1632175"></polygon>
                    <g id="Group-8" transform="translate(35.122807, 0.000000)">
                        <polygon id="Fill-6" points="3.19298246 0.911322807 3.19298246 4.10430526 10.5144912 4.10430526 0.159649123 14.4591474 2.41708772 16.716586 12.7719298 6.36174386 12.7719298 13.6832526 15.9649123 13.6832526 15.9649123 0.911322807"></polygon>
                    </g>
                    <path d="M47.8947368,29.6481649 C47.8947368,31.4106912 46.4610877,32.8411474 44.7017544,32.8411474 L16.1149825,32.8411474 L16.1149825,36.0341298 L44.7017544,36.0341298 C48.226807,36.0341298 51.0877193,33.1732175 51.0877193,29.6481649 L51.0877193,16.8762351 L47.8947368,16.8762351 L47.8947368,29.6481649 Z" id="Fill-9"></path>
                </g>
            </g>
        </g>
    </g>
</svg>