<?xml version="1.0" encoding="utf-8"?>
<!-- Generator: Adobe Illustrator 22.1.0, SVG Export Plug-In . SVG Version: 6.00 Build 0)  -->
<svg version="1.1" id="Layer_1" xmlns="http://www.w3.org/2000/svg" xmlns:xlink="http://www.w3.org/1999/xlink" x="0px" y="0px"
	 viewBox="0 0 40 40" style="enable-background:new 0 0 40 40;" xml:space="preserve">
<style type="text/css">
	.st0{fill:#FFFFFF;}
</style>
<circle class="st0" cx="26.3" cy="23.7" r="2.5"/>
<path class="st0" d="M33.3,17.3c0-2.9-2.4-5.3-5.3-5.3H17.3C17,10.5,15.6,9.3,14,9.3h-4c-1.8,0-3.3,1.5-3.3,3.3v0.7v12
	c0,2.9,2.4,5.3,5.3,5.3h13.7H28c2.9,0,5.3-2.4,5.3-5.3V17.3z M28,28L28,28H12c-1.5,0-2.7-1.2-2.7-2.7V14.7H28c1.5,0,2.7,1.2,2.7,2.7
	v8C30.7,26.8,29.5,28,28,28z"/>
</svg>
