<svg width="32" height="32" viewBox="0 0 32 32" xmlns="http://www.w3.org/2000/svg"><title>meetings/calendar-empty_32</title><path d="M30 23l0 1 0 4.008C30 29.105 29.103 30 28 30L4 30c-1.105 0-2-.893-2-1.992L2 24l0-1L2 6.992C2 5.895 2.897 5 4 5l24 0c1.105 0 2 .893 2 1.992L30 23zM28 4l-5 0 0-2.505c0-.279-.224-.495-.5-.495-.268 0-.5.222-.5.495L22 4 10 4l0-2.505C10 1.216 9.776 1 9.5 1c-.268 0-.5.222-.5.495L9 4 4 4C2.347 4 1 5.34 1 6.992l0 21.016C1 29.661 2.343 31 4 31l24 0c1.653 0 3-1.34 3-2.992l0-21.016C31 5.339 29.657 4 28 4z" fill-rule="evenodd"/></svg>