<?xml version="1.0" encoding="UTF-8"?>
<svg width="30px" height="30px" viewBox="0 0 30 30" version="1.1" xmlns="http://www.w3.org/2000/svg" xmlns:xlink="http://www.w3.org/1999/xlink">
    <!-- Generator: Sketch 60.1 (88133) - https://sketch.com -->
    <title>phone/recents-presence-stroke_30</title>
    <desc>Created with Sketch.</desc>
    <g id="phone/recents-presence-stroke_30" stroke="none" stroke-width="1" fill="none" fill-rule="evenodd">
        <path d="M15.0002,0.0001 C6.72791525,0.0001 0.0002,6.72781525 0.0002,15.0001 C0.0002,23.2723847 6.72791525,30.0001 15.0002,30.0001 C23.2724847,30.0001 30.0002,23.2723847 30.0002,15.0001 C30.0002,6.72781525 23.2724847,0.0001 15.0002,0.0001 Z M15.0002,1.0001 C22.7202,1.0001 29.0002,7.2801 29.0002,15.0001 C29.0002,22.7201 22.7202,29.0001 15.0002,29.0001 C7.2802,29.0001 1.0002,22.7201 1.0002,15.0001 C1.0002,7.2801 7.2802,1.0001 15.0002,1.0001 Z M19.3242,20.9121 C19.2262,21.0101 19.0982,21.0581 18.9702,21.0581 C18.8432,21.0581 18.7152,21.0101 18.6172,20.9121 L14.8792,17.1741 C14.6382,16.9331 14.5002,16.6001 14.5002,16.2601 L14.5002,7.8531 C14.5002,7.5761 14.7232,7.3531 15.0002,7.3531 C15.2762,7.3531 15.5002,7.5761 15.5002,7.8531 L15.5002,16.2601 C15.5002,16.3371 15.5312,16.4121 15.5862,16.4671 L19.3242,20.2051 C19.5192,20.4001 19.5192,20.7171 19.3242,20.9121" id="fill" fill="#171B1F"></path>
    </g>
</svg>