<svg width="16" height="16" xmlns="http://www.w3.org/2000/svg">

 <g>
  <title>background</title>
  <rect fill="none" id="canvas_background" height="18" width="18" y="-1" x="-1"/>
 </g>
 <g>
  <title>Layer 1</title>
  <circle stroke="null" id="svg_1" fill="#000000" r="1.447368" cy="12.710527" cx="12.710527" class="st0"/>
  <circle stroke="null" id="svg_2" fill="#000000" r="1.315789" cy="7.894737" cx="8.026315" class="st0"/>
  <path stroke="null" id="svg_3" fill="#1D1C39" d="m12.039043,6.530654c0,0 0,0 0,0c-0.22887,-0.629393 -0.572176,-1.144351 -1.029916,-1.659309c-0.286088,-0.286088 -0.801046,-0.286088 -1.087134,0c-0.286088,0.286088 -0.286088,0.801046 0,1.087134c0.286088,0.286088 0.514958,0.629393 0.686611,1.087134c0,0 0,0 0,0c0.057218,0.171653 0.114435,0.286088 0.114435,0.457741c0.171653,0.915481 -0.114435,1.88818 -0.801046,2.574791c-0.686611,0.686611 -1.602092,0.972699 -2.574791,0.801046c0,0 0,0 0,0c0,0 0,0 0,0c-0.114435,0 -0.286088,-0.057218 -0.400523,-0.114435c-0.400523,-0.171653 -0.743828,-0.343305 -1.087134,-0.686611c-1.029916,-1.029916 -1.087134,-2.746443 -0.114435,-3.890795c0,0 0,0 0,0l0,0c0.057218,-0.057218 0.057218,-0.114435 0.114435,-0.114435c0.057218,-0.057218 0.114435,-0.057218 0.114435,-0.114435l0,0c0,0 0,0 0,0c0.514958,-0.457741 1.201569,-0.686611 1.88818,-0.686611c0.400523,0 0.743828,-0.343305 0.743828,-0.743828c0,-0.400523 -0.343305,-0.743828 -0.743828,-0.743828c0,0 0,0 0,0c-1.029916,0 -2.059832,0.400523 -2.860878,1.087134c0,0 0,0 0,0c0,0 0,0 0,0l0,0c-0.057218,0.057218 -0.171653,0.114435 -0.22887,0.171653c-0.057218,0.057218 -0.114435,0.171653 -0.171653,0.22887l0,0c0,0 0,0 0,0c-1.487657,1.716527 -1.373222,4.348535 0.22887,5.950627c0.457741,0.457741 1.029916,0.801046 1.659309,1.029916c0.22887,0.057218 0.457741,0.114435 0.686611,0.171653c0,0 0,0 0,0c0.286088,0.057218 0.514958,0.057218 0.801046,0.057218c1.144351,0 2.288703,-0.457741 3.089749,-1.258786c1.029916,-1.029916 1.487657,-2.460355 1.201569,-3.890795c-0.057218,-0.343305 -0.114435,-0.572176 -0.22887,-0.801046z" class="st0"/>
  <path stroke="null" id="svg_4" fill="#1D1C39" d="m7.960527,0.121052c-4.361813,0 -7.839474,3.536605 -7.839474,7.839474s3.536605,7.839474 7.839474,7.839474c0.648378,0 1.355699,-0.058943 1.945133,-0.235774c0.412604,-0.117887 0.648378,-0.530491 0.589434,-0.943095c-0.117887,-0.412604 -0.530491,-0.648378 -0.943095,-0.589434c-0.530491,0.117887 -1.060981,0.17683 -1.591472,0.17683c-3.477661,0 -6.306945,-2.829284 -6.306945,-6.306945s2.829284,-6.248002 6.306945,-6.248002s6.306945,2.829284 6.306945,6.306945c0,0.530491 -0.058943,1.119925 -0.235774,1.650416c-0.117887,0.412604 0.117887,0.825208 0.530491,0.943095c0.412604,0.117887 0.825208,-0.117887 0.943095,-0.530491c0.17683,-0.648378 0.294717,-1.355699 0.294717,-2.06302c0,-4.361813 -3.477661,-7.839474 -7.839474,-7.839474z" class="st0"/>
 </g>
</svg>